<svg xmlns="http://www.w3.org/2000/svg" viewBox="0 0 256 256" role="img" aria-labelledby="title desc">
  <title id="title">The Panda Blog logo</title>
  <desc id="desc">A panda peeking around a dark letter A beside bamboo leaves</desc>
  <defs>
    <filter id="shadow" x="-20%" y="-20%" width="140%" height="140%">
      <feDropShadow dx="0" dy="5" stdDeviation="5" flood-color="#111827" flood-opacity=".22"/>
    </filter>
  </defs>
  <rect width="256" height="256" rx="42" fill="#f7f7f5"/>
  <path d="M37 194c-8-19 4-33 21-39l43-15 31-98c4-12 21-12 25 0l35 98 32 9c19 6 27 22 20 39H37Z" fill="#fff" filter="url(#shadow)"/>
  <path d="M125 51 91 174c-3 11 5 21 16 21h19l14-49 15 49h22c11 0 19-10 16-21L159 51c-5-15-29-15-34 0Z" fill="#1f2937" filter="url(#shadow)"/>
  <path d="M74 74c-19-3-32 12-28 29 3 12 16 18 26 13 12-6 15-25 2-42Z" fill="#111827"/>
  <path d="M106 92c-22-10-47-1-52 19-6 24 16 46 41 43 18-2 31-18 28-35-2-12-7-21-17-27Z" fill="#fff" filter="url(#shadow)"/>
  <ellipse cx="80" cy="114" rx="13" ry="18" fill="#111827" transform="rotate(20 80 114)"/>
  <ellipse cx="105" cy="112" rx="13" ry="18" fill="#111827" transform="rotate(-20 105 112)"/>
  <circle cx="84" cy="114" r="4" fill="#fff"/><circle cx="101" cy="112" r="4" fill="#fff"/>
  <path d="M87 126c4-5 11-5 15 0-1 8-13 10-15 0Z" fill="#111827"/>
  <path d="M182 157c16-28 22-55 20-81" fill="none" stroke="#637d35" stroke-width="7" stroke-linecap="round"/>
  <path d="M197 105c-17-21-18-35-13-47 15 5 23 19 13 47Zm-7 23c17-20 29-23 40-20-3 16-17 25-40 20Zm-6 23c-17-14-29-14-38-8 7 15 21 19 38 8Z" fill="#7e9b49"/>
</svg>
